<svg width="16" height="8" viewBox="0 0 16 8" fill="none" xmlns="http://www.w3.org/2000/svg">
<rect x="0.666626" width="2.40003" height="1.50002" rx="0.189164" fill="white"/>
<rect x="0.666626" y="2.16666" width="2.40003" height="1.50002" rx="0.189164" fill="white"/>
<rect x="0.666626" y="4.33331" width="2.40003" height="1.50002" rx="0.189164" fill="white"/>
<rect x="0.666626" y="6.49998" width="2.40003" height="1.50002" rx="0.189164" fill="white"/>
<rect x="3.73328" width="2.40003" height="1.50002" rx="0.189164" fill="white"/>
<rect x="3.73328" y="2.16666" width="2.40003" height="1.50002" rx="0.189164" fill="white"/>
<rect x="3.73328" y="4.33331" width="2.40003" height="1.50002" rx="0.189164" fill="white"/>
<rect x="3.73328" y="6.49998" width="2.40003" height="1.50002" rx="0.189164" fill="white"/>
<rect x="6.79999" width="2.40003" height="1.50002" rx="0.189164" fill="white"/>
<rect x="6.79999" y="2.16666" width="2.40003" height="1.50002" rx="0.189164" fill="white"/>
<rect x="6.79999" y="4.33331" width="2.40003" height="1.50002" rx="0.189164" fill="white"/>
<rect x="6.79999" y="6.49998" width="2.40003" height="1.50002" rx="0.189164" fill="white"/>
<rect x="9.86664" width="2.40003" height="1.50002" rx="0.189164" fill="white"/>
<rect x="9.86664" y="2.16666" width="2.40003" height="1.50002" rx="0.189164" fill="white"/>
<rect x="9.86664" y="4.33331" width="2.40003" height="1.50002" rx="0.189164" fill="white"/>
<rect x="9.86664" y="6.49998" width="2.40003" height="1.50002" rx="0.189164" fill="white"/>
<rect x="12.9333" width="2.40003" height="1.50002" rx="0.189164" fill="white"/>
<rect x="12.9333" y="2.16666" width="2.40003" height="1.50002" rx="0.189164" fill="white"/>
<rect x="12.9333" y="4.33331" width="2.40003" height="1.50002" rx="0.189164" fill="white"/>
<rect x="12.9333" y="6.49998" width="2.40003" height="1.50002" rx="0.189164" fill="white"/>
</svg>
